<?xml version="1.0" encoding="iso-8859-1"?>
<!-- Generator: Adobe Illustrator 19.0.0, SVG Export Plug-In . SVG Version: 6.00 Build 0)  -->
<svg version="1.1" id="Layer_1" xmlns="http://www.w3.org/2000/svg" xmlns:xlink="http://www.w3.org/1999/xlink" x="0px" y="0px"
	 viewBox="0 0 512 512" style="enable-background:new 0 0 512 512;" xml:space="preserve">
<path style="fill:#EC5565;" d="M512,256.006C512,397.402,397.394,512.004,256.004,512C114.606,512.004,0,397.402,0,256.006
	C-0.007,114.61,114.606,0,256.004,0C397.394,0,512,114.614,512,256.006z"/>
<path style="fill:#D94453;" d="M511.778,264.782c-0.187-0.17-0.365-0.347-0.535-0.535c-0.334-0.427-158.878-158.842-159.242-159.242
	c-4.09-5.232-10.433-8.495-17.252-8.495H177.251c-9.006,0-17.222,5.662-20.448,14.079L85.877,295.574v97.957
	c0,6.348,2.743,12.028,7.054,16.039c0.367,0.396,0.745,0.771,1.139,1.139c0.367,0.395,90.599,90.627,90.993,90.994
	c0.117,0.128,0.246,0.243,0.367,0.367c22.427,6.419,46.083,9.929,70.574,9.929C394.451,512.004,507.142,402.105,511.778,264.782z"/>
<g>
	<path style="fill:#F4F6F9;" d="M355.197,110.596c-3.226-8.425-11.442-14.087-20.449-14.087H177.251
		c-9.006,0-17.222,5.663-20.449,14.08L85.877,295.575v97.957c0,12.107,9.829,21.957,21.909,21.957h296.428
		c12.079,0,21.909-9.851,21.909-21.957v-97.957L355.197,110.596z M170.038,115.664c1.163-3.025,3.995-4.977,7.213-4.977h157.497
		c3.219,0,6.05,1.952,7.213,4.977l68.751,179.323h-89.213c-6.867,0-12.848,4.769-14.219,11.332l-3.849,18.358
		c-0.699,3.33-3.904,5.753-7.629,5.753h-79.614c-3.717,0-6.923-2.422-7.621-5.759l-3.849-18.351
		c-1.371-6.562-7.351-11.332-14.219-11.332h-89.213L170.038,115.664z M411.947,393.533c0,4.292-3.468,7.78-7.732,7.78H107.786
		c-4.265,0-7.732-3.489-7.732-7.78v-84.369l90.794,0.062l3.849,18.345c2.063,9.871,11.103,17.036,21.493,17.036h79.614
		c10.397,0,19.438-7.165,21.501-17.029l4.195-18.414h90.448V393.533z"/>
	<path style="fill:#F4F6F9;" d="M142.585,287.898c3.918,0,7.088-3.17,7.088-7.088v-21.265c0-3.911,3.178-7.088,7.088-7.088h198.477
		c3.911,0,7.088,3.178,7.088,7.088v21.265c0,3.918,3.17,7.088,7.088,7.088s7.088-3.17,7.088-7.088v-21.265
		c0-9.229-5.943-17.024-14.177-19.959v-15.421c0-9.333-6.063-17.198-14.428-20.083c0.077-0.419,0.251-0.803,0.251-1.245v-21.265
		c0-9.229-5.943-17.024-14.177-19.959v-15.483c0-11.727-9.539-21.265-21.265-21.265H199.293c-11.727,0-21.265,9.539-21.265,21.265
		v15.483c-8.234,2.935-14.177,10.731-14.177,19.959v21.265c0,0.436,0.173,0.815,0.247,1.229
		c-8.361,2.865-14.425,10.716-14.425,20.036v15.483c-8.234,2.935-14.177,10.731-14.177,19.959v21.265
		C135.497,284.727,138.667,287.898,142.585,287.898z M199.293,139.04h113.415c3.911,0,7.088,3.178,7.088,7.088v14.177H192.204
		v-14.177C192.204,142.218,195.381,139.04,199.293,139.04z M178.027,181.571c0-3.911,3.178-7.088,7.088-7.088h141.77
		c3.911,0,7.088,3.178,7.088,7.088v21.265H178.027V181.571z M170.939,217.013H341c3.946,0,7.151,3.205,7.151,7.151v14.114H163.85
		v-14.177C163.85,220.191,167.027,217.013,170.939,217.013z"/>
</g>
<g>
</g>
<g>
</g>
<g>
</g>
<g>
</g>
<g>
</g>
<g>
</g>
<g>
</g>
<g>
</g>
<g>
</g>
<g>
</g>
<g>
</g>
<g>
</g>
<g>
</g>
<g>
</g>
<g>
</g>
</svg>
